<?xml version="1.0" standalone="no"?>
<!DOCTYPE svg PUBLIC "-//W3C//DTD SVG 20010904//EN"
 "http://www.w3.org/TR/2001/REC-SVG-20010904/DTD/svg10.dtd">
<svg version="1.0" xmlns="http://www.w3.org/2000/svg"
 width="520.000000pt" height="520.000000pt" viewBox="0 0 520.000000 520.000000"
 preserveAspectRatio="xMidYMid meet">
<metadata>
Created by potrace 1.14, written by Peter Selinger 2001-2017
</metadata>
<g transform="translate(0.000000,520.000000) scale(0.100000,-0.100000)"
fill="#000000" stroke="none">
<path d="M2493 4673 c-7 -2 -13 -14 -13 -25 0 -14 5 -18 16 -14 9 3 18 6 20 6
2 0 4 9 4 20 0 20 -5 23 -27 13z"/>
<path d="M2560 4660 c0 -16 7 -20 35 -20 28 0 35 4 35 20 0 16 -7 20 -35 20
-28 0 -35 -4 -35 -20z"/>
<path d="M2667 4674 c-16 -16 -6 -34 19 -34 19 0 25 5 22 17 -3 19 -29 29 -41
17z"/>
<path d="M2400 4650 c0 -13 7 -20 20 -20 13 0 20 7 20 20 0 13 -7 20 -20 20
-13 0 -20 -7 -20 -20z"/>
<path d="M2742 4653 c2 -10 12 -18 23 -18 11 0 21 8 23 18 3 13 -3 17 -23 17
-20 0 -26 -4 -23 -17z"/>
<path d="M2824 4655 c-3 -8 -3 -19 1 -25 11 -17 35 -11 35 9 0 23 -29 36 -36
16z"/>
<path d="M2320 4645 c0 -18 24 -30 39 -21 16 10 1 36 -20 36 -10 0 -19 -7 -19
-15z"/>
<path d="M2242 4633 c4 -22 43 -25 43 -3 0 8 -11 16 -23 18 -19 3 -23 0 -20
-15z"/>
<path d="M2902 4633 c5 -26 38 -29 38 -4 0 15 -6 21 -21 21 -14 0 -19 -5 -17
-17z"/>
<path d="M2168 4634 c-7 -7 2 -44 11 -44 17 1 33 20 28 34 -6 16 -28 22 -39
10z"/>
<path d="M2980 4620 c0 -13 7 -20 20 -20 13 0 20 7 20 20 0 13 -7 20 -20 20
-13 0 -20 -7 -20 -20z"/>
<path d="M2090 4600 c0 -13 7 -20 20 -20 13 0 20 7 20 20 0 13 -7 20 -20 20
-13 0 -20 -7 -20 -20z"/>
<path d="M3054 4609 c-9 -15 12 -33 30 -26 9 4 16 13 16 22 0 17 -35 21 -46 4z"/>
<path d="M3134 4595 c-7 -18 3 -35 22 -35 8 0 14 2 14 4 0 2 3 11 6 19 3 9 -3
16 -16 20 -13 3 -23 0 -26 -8z"/>
<path d="M2017 4593 c-14 -13 -7 -33 11 -33 24 0 32 8 25 26 -5 15 -25 19 -36
7z"/>
<path d="M1942 4572 c-12 -8 -7 -42 7 -42 17 1 33 20 28 34 -7 18 -16 20 -35
8z"/>
<path d="M3210 4560 c0 -13 7 -20 20 -20 13 0 20 7 20 20 0 13 -7 20 -20 20
-13 0 -20 -7 -20 -20z"/>
<path d="M3286 4543 c-6 -15 8 -32 25 -33 14 0 19 34 7 42 -19 11 -25 10 -32
-9z"/>
<path d="M1867 4543 c-14 -13 -7 -33 11 -33 24 0 32 8 25 26 -5 15 -25 19 -36
7z"/>
<path d="M3356 4514 c-8 -20 -7 -21 19 -26 14 -2 20 3 20 17 0 25 -30 32 -39
9z"/>
<path d="M1786 4512 c-9 -14 12 -35 28 -29 23 9 20 37 -3 37 -11 0 -22 -4 -25
-8z"/>
<path d="M3433 4484 c-8 -21 13 -42 28 -27 13 13 5 43 -11 43 -6 0 -13 -7 -17
-16z"/>
<path d="M1715 4481 c-9 -16 3 -31 26 -31 14 0 19 6 17 17 -4 20 -33 29 -43
14z"/>
<path d="M3504 4456 c-7 -19 3 -36 21 -36 22 0 26 29 4 40 -15 8 -21 7 -25 -4z"/>
<path d="M1652 4452 c-12 -8 -7 -42 7 -42 17 1 31 18 25 33 -7 19 -13 20 -32
9z"/>
<path d="M3574 4415 c-7 -18 3 -35 21 -35 18 0 26 25 12 39 -15 15 -27 14 -33
-4z"/>
<path d="M1582 4412 c-12 -8 -7 -42 7 -42 17 1 33 20 28 34 -7 18 -16 20 -35
8z"/>
<path d="M3643 4374 c-9 -23 13 -40 32 -24 12 10 13 16 4 26 -15 18 -28 18
-36 -2z"/>
<path d="M1512 4372 c-12 -8 -7 -42 7 -42 17 1 33 20 28 34 -7 18 -16 20 -35
8z"/>
<path d="M3709 4334 c-10 -13 -10 -17 2 -25 18 -11 33 -6 37 13 4 22 -24 30
-39 12z"/>
<path d="M1441 4326 c-9 -10 -8 -16 4 -26 19 -16 41 1 32 24 -8 20 -21 20 -36
2z"/>
<path d="M3773 4284 c-9 -23 19 -37 37 -18 13 13 13 16 0 24 -21 14 -30 12
-37 -6z"/>
<path d="M1375 4280 c-4 -7 -3 -16 3 -22 14 -14 45 -2 40 15 -6 16 -34 21 -43
7z"/>
<path d="M3841 4246 c-14 -17 -7 -36 14 -36 22 0 29 20 13 36 -13 13 -16 13
-27 0z"/>
<path d="M1320 4235 c-20 -24 4 -45 26 -24 13 14 13 17 1 27 -11 10 -17 9 -27
-3z"/>
<path d="M3902 4197 c-10 -11 -9 -17 3 -27 24 -20 45 4 24 26 -14 13 -17 13
-27 1z"/>
<path d="M1260 4185 c-20 -24 4 -45 26 -24 13 14 13 17 1 27 -11 10 -17 9 -27
-3z"/>
<path d="M3955 4140 c-4 -7 0 -19 9 -28 15 -15 18 -15 26 -2 5 8 8 20 7 25 -5
15 -34 18 -42 5z"/>
<path d="M1193 4124 c-3 -8 -1 -20 5 -26 15 -15 43 8 35 28 -7 19 -32 18 -40
-2z"/>
<path d="M4017 4086 c-8 -20 20 -43 35 -28 14 14 3 42 -16 42 -7 0 -16 -6 -19
-14z"/>
<path d="M1140 4075 c-20 -24 4 -45 26 -24 13 14 13 17 1 27 -11 10 -17 9 -27
-3z"/>
<path d="M4075 4030 c-4 -6 -1 -17 5 -26 10 -11 16 -12 26 -3 11 9 11 15 3 25
-14 17 -25 18 -34 4z"/>
<path d="M1081 4016 c-8 -10 -8 -16 3 -25 10 -9 16 -8 26 3 12 15 6 36 -9 36
-5 0 -14 -6 -20 -14z"/>
<path d="M4131 3976 c-14 -17 -7 -36 14 -36 22 0 29 20 13 36 -13 13 -16 13
-27 0z"/>
<path d="M1030 3966 c-10 -13 -10 -19 0 -32 12 -14 15 -14 29 0 14 15 14 17 0
32 -14 14 -17 14 -29 0z"/>
<path d="M4180 3916 c-10 -13 -10 -19 0 -32 12 -14 15 -14 29 0 14 15 14 17 0
32 -14 14 -17 14 -29 0z"/>
<path d="M977 3896 c-9 -22 18 -40 33 -22 6 9 9 20 5 26 -9 15 -32 12 -38 -4z"/>
<path d="M4224 3849 c-3 -6 0 -17 7 -25 18 -17 44 -2 36 20 -7 18 -33 21 -43
5z"/>
<path d="M931 3836 c-8 -10 -8 -16 3 -25 10 -9 16 -8 26 3 12 15 6 36 -9 36
-5 0 -14 -6 -20 -14z"/>
<path d="M4281 3791 c-8 -5 -11 -16 -8 -25 7 -18 16 -20 37 -6 13 8 13 11 0
24 -10 10 -20 12 -29 7z"/>
<path d="M880 3765 c-10 -12 -9 -16 4 -21 18 -7 49 13 40 27 -8 14 -30 11 -44
-6z"/>
<path d="M4314 3719 c-3 -6 0 -17 7 -25 18 -17 44 -2 36 20 -7 18 -33 21 -43
5z"/>
<path d="M839 3704 c-10 -13 -10 -17 2 -25 20 -12 26 -11 33 7 12 32 -12 45
-35 18z"/>
<path d="M4356 3651 c-3 -4 0 -16 7 -25 12 -16 14 -16 26 -2 7 8 10 20 6 26
-8 12 -32 13 -39 1z"/>
<path d="M797 3636 c-9 -22 18 -40 33 -22 6 9 9 20 5 26 -9 15 -32 12 -38 -4z"/>
<path d="M4396 3581 c-3 -4 0 -16 7 -25 12 -16 14 -16 26 -2 7 8 10 20 6 26
-8 12 -32 13 -39 1z"/>
<path d="M756 3563 c-6 -15 8 -32 25 -33 10 0 20 31 13 41 -9 15 -31 10 -38
-8z"/>
<path d="M4441 3521 c-11 -7 -12 -15 -5 -31 8 -18 12 -19 27 -8 15 11 16 16 5
30 -9 12 -18 15 -27 9z"/>
<path d="M723 3494 c-9 -23 19 -38 34 -17 7 9 10 20 7 24 -9 15 -34 10 -41 -7z"/>
<path d="M4466 3441 c-7 -10 3 -41 13 -41 17 1 31 18 25 33 -7 18 -29 23 -38
8z"/>
<path d="M693 3424 c-8 -21 13 -42 28 -27 13 13 5 43 -11 43 -6 0 -13 -7 -17
-16z"/>
<path d="M1203 3410 c-12 -5 -26 -18 -32 -29 -7 -13 -11 -158 -11 -426 0 -445
-3 -468 -55 -481 -15 -4 -54 -4 -87 -1 -78 7 -103 -3 -116 -45 -17 -53 -25
-253 -12 -277 18 -34 64 -51 172 -62 248 -26 436 37 502 169 43 86 46 127 46
637 l0 484 -22 21 c-20 19 -34 20 -192 19 -94 0 -181 -4 -193 -9z m335 -552
l-3 -483 -31 -65 c-57 -120 -144 -155 -368 -148 -180 6 -186 8 -180 90 3 35 7
83 10 107 l6 43 50 -4 c61 -6 126 7 151 30 11 9 28 34 38 54 18 35 19 65 19
448 l0 410 156 0 155 0 -3 -482z"/>
<path d="M2083 3410 c-12 -5 -26 -18 -32 -29 -8 -13 -11 -216 -11 -626 l0
-606 25 -24 24 -25 459 0 c438 0 461 1 483 19 23 19 24 24 24 155 0 116 -2
138 -18 153 -16 16 -44 18 -277 21 l-260 3 -1 382 c-1 210 0 397 1 415 3 60
-12 134 -31 153 -17 17 -35 19 -191 18 -95 0 -183 -4 -195 -9z m337 -533 c0
-384 2 -466 14 -483 14 -18 30 -19 280 -22 l266 -3 0 -99 0 -100 -435 0 -435
0 0 585 0 585 155 0 155 0 0 -463z"/>
<path d="M3103 3405 c-42 -29 -38 -49 86 -417 314 -935 287 -863 327 -878 35
-14 337 -13 367 1 33 15 42 36 151 360 52 156 138 411 191 567 52 156 95 296
95 312 0 19 -9 36 -27 50 -26 20 -37 21 -176 18 -145 -3 -149 -4 -170 -28 -15
-17 -51 -130 -112 -343 -49 -174 -92 -317 -95 -317 -4 0 -30 80 -59 178 -29
97 -59 195 -66 217 -12 35 -52 170 -70 232 -3 12 -18 32 -32 43 -24 18 -40 20
-207 20 -144 0 -186 -3 -203 -15z m459 -360 c48 -159 97 -321 108 -360 12 -38
27 -81 33 -95 15 -30 49 -37 67 -15 7 9 61 184 120 388 l107 372 126 3 126 3
-9 -28 c-4 -15 -83 -248 -175 -518 -91 -269 -176 -519 -188 -555 l-22 -65
-151 -3 c-113 -2 -154 1 -162 10 -5 7 -17 36 -25 63 -9 28 -95 284 -191 569
-97 286 -176 521 -176 523 0 2 73 2 162 1 l161 -3 89 -290z"/>
<path d="M4502 3372 c-12 -8 -7 -42 7 -42 17 1 31 18 25 33 -7 19 -13 20 -32
9z"/>
<path d="M663 3354 c-7 -19 11 -39 26 -30 16 10 13 33 -4 40 -9 3 -18 -1 -22
-10z"/>
<path d="M4531 3301 c-17 -11 -7 -41 13 -41 21 0 27 15 13 33 -8 11 -17 14
-26 8z"/>
<path d="M633 3274 c-9 -23 19 -38 34 -17 7 9 10 20 7 24 -9 15 -34 10 -41 -7z"/>
<path d="M4548 3225 c-3 -3 -3 -15 -1 -26 7 -26 38 -21 38 6 0 19 -25 32 -37
20z"/>
<path d="M616 3213 c-3 -4 -6 -15 -6 -25 0 -24 33 -21 38 3 3 17 -21 33 -32
22z"/>
<path d="M4570 3130 c0 -13 7 -20 20 -20 13 0 20 7 20 20 0 13 -7 20 -20 20
-13 0 -20 -7 -20 -20z"/>
<path d="M592 3118 c2 -12 10 -23 18 -23 22 0 19 39 -3 43 -15 3 -18 -1 -15
-20z"/>
<path d="M4603 3073 c-22 -8 -15 -43 7 -43 13 0 20 7 20 19 0 22 -9 30 -27 24z"/>
<path d="M570 3040 c0 -13 7 -20 20 -20 13 0 20 7 20 20 0 13 -7 20 -20 20
-13 0 -20 -7 -20 -20z"/>
<path d="M4606 2991 c-9 -14 4 -41 19 -41 18 0 26 15 19 34 -7 17 -29 21 -38
7z"/>
<path d="M556 2983 c-14 -15 -5 -43 14 -43 13 0 20 7 20 19 0 19 -23 35 -34
24z"/>
<path d="M4620 2900 c0 -13 7 -20 20 -20 13 0 20 7 20 20 0 13 -7 20 -20 20
-13 0 -20 -7 -20 -20z"/>
<path d="M546 2903 c-14 -15 -5 -43 14 -43 13 0 20 7 20 19 0 19 -23 35 -34
24z"/>
<path d="M4628 2834 c-3 -3 -4 -13 -1 -23 6 -25 43 -16 43 10 0 18 -29 27 -42
13z"/>
<path d="M537 2824 c-16 -16 -7 -44 14 -44 15 0 20 5 17 22 -3 22 -19 33 -31
22z"/>
<path d="M4630 2740 c0 -13 7 -20 20 -20 13 0 20 7 20 20 0 13 -7 20 -20 20
-13 0 -20 -7 -20 -20z"/>
<path d="M530 2725 c0 -20 4 -26 18 -23 9 2 17 12 17 23 0 11 -8 21 -17 23
-14 3 -18 -3 -18 -23z"/>
<path d="M4640 2660 c0 -13 7 -20 20 -20 13 0 20 7 20 20 0 13 -7 20 -20 20
-13 0 -20 -7 -20 -20z"/>
<path d="M527 2663 c-15 -15 -7 -43 13 -43 15 0 20 7 20 25 0 24 -18 34 -33
18z"/>
<path d="M4640 2580 c0 -13 7 -20 20 -20 13 0 20 7 20 20 0 13 -7 20 -20 20
-13 0 -20 -7 -20 -20z"/>
<path d="M522 2568 c5 -34 38 -37 38 -4 0 20 -5 26 -21 26 -15 0 -20 -5 -17
-22z"/>
<path d="M4640 2500 c0 -13 7 -20 20 -20 13 0 20 7 20 20 0 13 -7 20 -20 20
-13 0 -20 -7 -20 -20z"/>
<path d="M526 2501 c-9 -13 4 -41 18 -41 19 0 24 9 19 31 -6 20 -28 26 -37 10z"/>
<path d="M4636 2443 c-14 -15 -5 -43 14 -43 13 0 20 7 20 19 0 19 -23 35 -34
24z"/>
<path d="M530 2410 c0 -13 7 -20 20 -20 13 0 20 7 20 20 0 13 -7 20 -20 20
-13 0 -20 -7 -20 -20z"/>
<path d="M4624 2356 c-7 -19 3 -36 22 -36 10 0 14 8 12 22 -4 26 -26 36 -34
14z"/>
<path d="M540 2330 c0 -13 7 -20 20 -20 13 0 20 7 20 20 0 13 -7 20 -20 20
-13 0 -20 -7 -20 -20z"/>
<path d="M4612 2268 c5 -34 38 -37 38 -4 0 20 -5 26 -21 26 -15 0 -20 -5 -17
-22z"/>
<path d="M550 2250 c0 -13 7 -20 20 -20 13 0 20 7 20 20 0 13 -7 20 -20 20
-13 0 -20 -7 -20 -20z"/>
<path d="M4600 2191 c0 -19 23 -35 34 -24 14 15 5 43 -14 43 -13 0 -20 -7 -20
-19z"/>
<path d="M579 2192 c-11 -2 -15 -10 -12 -23 6 -20 28 -26 38 -9 9 15 -8 36
-26 32z"/>
<path d="M4580 2110 c0 -13 7 -20 20 -20 13 0 20 7 20 20 0 13 -7 20 -20 20
-13 0 -20 -7 -20 -20z"/>
<path d="M584 2105 c-6 -15 2 -35 14 -35 18 1 32 18 26 33 -8 21 -33 22 -40 2z"/>
<path d="M4563 2044 c-8 -21 13 -42 28 -27 13 13 5 43 -11 43 -6 0 -13 -7 -17
-16z"/>
<path d="M604 2024 c3 -9 6 -18 6 -20 0 -2 9 -4 21 -4 15 0 19 4 15 16 -3 9
-6 18 -6 20 0 2 -9 4 -21 4 -15 0 -19 -4 -15 -16z"/>
<path d="M4536 1964 c-8 -21 -8 -21 13 -27 18 -4 31 10 31 34 0 16 -38 10 -44
-7z"/>
<path d="M634 1964 c-7 -3 -10 -14 -7 -25 7 -25 38 -21 38 5 0 20 -12 28 -31
20z"/>
<path d="M4513 1894 c-7 -19 11 -39 26 -30 16 10 13 33 -4 40 -9 3 -18 -1 -22
-10z"/>
<path d="M650 1883 c1 -19 19 -35 34 -30 21 8 9 37 -15 37 -10 0 -19 -3 -19
-7z"/>
<path d="M4483 1814 c-9 -23 19 -38 34 -17 7 9 10 20 7 24 -9 15 -34 10 -41
-7z"/>
<path d="M686 1811 c-7 -10 3 -41 13 -41 17 1 31 18 25 33 -7 18 -29 23 -38 8z"/>
<path d="M976 1762 c-3 -5 11 -56 31 -115 l37 -107 36 0 37 0 36 107 c21 61
33 111 28 116 -5 5 -19 7 -32 5 -18 -2 -27 -16 -43 -63 l-20 -60 -14 50 c-8
28 -19 56 -24 63 -12 13 -64 17 -72 4z"/>
<path d="M1207 1764 c-4 -4 -7 -56 -7 -116 l0 -109 38 3 37 3 0 110 0 110 -30
3 c-17 2 -34 0 -38 -4z"/>
<path d="M1300 1656 l0 -117 38 3 c35 3 37 5 40 41 2 20 7 37 12 37 4 0 12
-17 17 -37 8 -36 11 -38 51 -41 47 -4 47 -3 23 52 -16 38 -16 41 1 58 24 24
23 70 -2 93 -15 13 -42 20 -100 23 l-80 5 0 -117z m120 39 c0 -8 -9 -15 -20
-15 -11 0 -20 7 -20 15 0 8 9 15 20 15 11 0 20 -7 20 -15z"/>
<path d="M1517 1764 c-4 -4 -7 -18 -7 -31 0 -19 5 -23 30 -23 l30 0 0 -85 0
-85 40 0 40 0 0 85 0 85 31 0 c27 0 30 3 27 28 -3 27 -3 27 -93 30 -50 1 -94
0 -98 -4z"/>
<path d="M1727 1764 c-14 -15 -8 -169 8 -191 25 -35 83 -48 128 -29 47 19 59
49 55 145 l-3 76 -30 0 -30 0 -3 -82 c-2 -46 -7 -84 -12 -84 -33 -6 -35 -2
-40 81 l-5 85 -30 3 c-17 2 -34 0 -38 -4z"/>
<path d="M2006 1761 c-12 -18 -76 -196 -76 -208 0 -8 13 -13 31 -13 22 0 32 5
36 20 4 15 14 20 40 20 26 0 36 -5 40 -20 4 -16 14 -20 44 -20 46 0 46 -5 -4
136 -32 88 -32 89 -69 92 -20 2 -39 -1 -42 -7z m44 -112 c0 -5 -4 -9 -10 -9
-5 0 -10 7 -10 16 0 8 5 12 10 9 6 -3 10 -10 10 -16z"/>
<path d="M2177 1764 c-4 -4 -7 -56 -7 -116 l0 -108 91 0 90 0 -3 28 c-3 25 -7
27 -50 30 l-47 3 -3 82 -3 82 -30 3 c-17 2 -34 0 -38 -4z"/>
<path d="M2479 1743 c-31 -80 -69 -188 -69 -195 0 -4 15 -8 34 -8 25 0 35 5
39 20 4 15 14 20 37 20 23 0 33 -5 37 -20 4 -16 14 -20 44 -20 22 0 39 4 39 8
0 11 -60 183 -71 205 -7 11 -22 17 -45 17 -28 0 -36 -5 -45 -27z m51 -88 c0
-8 -4 -15 -10 -15 -5 0 -10 7 -10 15 0 8 5 15 10 15 6 0 10 -7 10 -15z"/>
<path d="M2695 1758 c-73 -40 -55 -114 35 -138 22 -6 38 -15 35 -20 -9 -15
-36 -12 -56 6 -14 13 -20 13 -38 2 -37 -23 -21 -51 40 -68 42 -12 105 4 119
30 16 29 12 75 -7 92 -10 8 -38 21 -63 28 -42 13 -43 14 -16 18 16 2 33 -1 39
-7 12 -12 47 13 47 35 0 27 -97 43 -135 22z"/>
<path d="M2905 1761 c-47 -20 -63 -75 -31 -110 9 -10 34 -23 56 -30 22 -6 40
-16 40 -21 0 -15 -33 -12 -57 5 -19 13 -23 13 -45 -5 l-23 -20 25 -19 c64 -51
180 -21 180 46 0 41 -18 61 -72 79 -41 14 -48 19 -30 22 13 2 29 -1 36 -7 10
-9 19 -6 37 8 22 18 23 21 8 36 -19 20 -94 29 -124 16z"/>
<path d="M3067 1763 c-4 -3 -7 -55 -7 -115 l0 -108 40 0 40 0 0 115 0 115 -33
0 c-19 0 -37 -3 -40 -7z"/>
<path d="M3205 1758 c-73 -40 -55 -114 35 -138 22 -6 38 -15 35 -20 -9 -15
-36 -12 -56 6 -14 13 -20 13 -38 2 -37 -23 -21 -51 39 -68 66 -19 131 14 132
68 1 40 -23 68 -67 76 -41 8 -56 26 -21 26 14 0 28 -5 31 -11 8 -12 45 17 45
37 0 27 -97 43 -135 22z"/>
<path d="M3367 1764 c-4 -4 -7 -18 -7 -31 0 -19 5 -23 30 -23 l30 0 0 -85 0
-85 40 0 40 0 0 85 0 85 31 0 c27 0 30 3 27 28 -3 27 -3 27 -93 30 -50 1 -94
0 -98 -4z"/>
<path d="M3643 1758 c-12 -15 -73 -188 -73 -206 0 -7 14 -12 31 -12 22 0 32 5
36 20 4 15 14 20 38 20 25 0 35 -5 40 -20 5 -15 15 -20 39 -20 18 0 35 3 38 6
8 7 -56 190 -73 210 -14 17 -63 18 -76 2z m40 -98 c3 -12 0 -20 -8 -20 -8 0
-11 8 -8 20 3 11 7 20 8 20 1 0 5 -9 8 -20z"/>
<path d="M3817 1763 c-4 -3 -7 -55 -7 -115 l0 -109 33 3 c30 3 32 6 37 47 l5
44 33 -47 c27 -37 39 -46 63 -46 l29 0 0 116 0 115 -27 -3 c-25 -3 -29 -8 -33
-48 l-5 -45 -24 35 c-13 19 -31 41 -39 48 -17 13 -54 16 -65 5z"/>
<path d="M4024 1755 c-11 -27 4 -45 36 -45 l30 0 0 -85 0 -85 35 0 35 0 0 84
0 85 33 3 c27 2 32 7 32 28 0 25 -1 25 -98 28 -80 2 -98 0 -103 -13z"/>
<path d="M4453 1744 c-7 -18 17 -38 31 -24 11 11 1 40 -14 40 -6 0 -13 -7 -17
-16z"/>
<path d="M722 1742 c-15 -10 -5 -42 13 -42 18 0 26 15 19 34 -7 18 -13 19 -32
8z"/>
<path d="M4416 1673 c-6 -15 8 -32 25 -33 14 0 19 34 7 42 -19 11 -25 10 -32
-9z"/>
<path d="M763 1673 c-15 -6 -17 -29 -3 -38 5 -3 17 -2 25 2 12 7 13 12 3 25
-7 9 -19 14 -25 11z"/>
<path d="M4376 1603 c-6 -15 8 -32 25 -33 10 0 20 31 13 41 -9 15 -31 10 -38
-8z"/>
<path d="M793 1594 c-8 -21 13 -42 28 -27 13 13 5 43 -11 43 -6 0 -13 -7 -17
-16z"/>
<path d="M4337 1536 c-3 -8 1 -20 9 -27 13 -10 17 -10 25 2 5 8 7 19 6 24 -6
16 -34 17 -40 1z"/>
<path d="M833 1524 c-8 -21 13 -42 28 -27 13 13 5 43 -11 43 -6 0 -13 -7 -17
-16z"/>
<path d="M4300 1476 c-10 -13 -10 -19 0 -32 12 -14 15 -14 29 0 14 15 14 17 0
32 -14 14 -17 14 -29 0z"/>
<path d="M876 1461 c-7 -11 3 -41 13 -41 14 0 29 23 24 36 -6 16 -29 19 -37 5z"/>
<path d="M4253 1404 c-8 -21 13 -42 28 -27 13 13 5 43 -11 43 -6 0 -13 -7 -17
-16z"/>
<path d="M921 1396 c-9 -10 -8 -16 4 -26 19 -16 41 1 32 24 -8 20 -21 20 -36
2z"/>
<path d="M4206 1343 c-9 -24 9 -39 29 -23 12 10 13 16 4 26 -15 19 -25 18 -33
-3z"/>
<path d="M972 1337 c-14 -17 2 -42 22 -34 20 8 20 21 2 36 -10 8 -16 8 -24 -2z"/>
<path d="M4160 1286 c-13 -17 -6 -36 15 -36 19 0 26 27 11 39 -10 8 -17 7 -26
-3z"/>
<path d="M1020 1276 c-10 -13 -10 -19 0 -32 12 -14 15 -14 29 0 14 15 14 17 0
32 -14 14 -17 14 -29 0z"/>
<path d="M4104 1225 c-10 -26 13 -42 32 -23 15 15 15 17 -5 27 -17 10 -22 9
-27 -4z"/>
<path d="M1071 1216 c-9 -10 -8 -16 4 -26 19 -16 41 1 32 24 -8 20 -21 20 -36
2z"/>
<path d="M4050 1165 c-10 -11 -10 -19 -2 -27 15 -15 44 -2 40 19 -4 23 -22 27
-38 8z"/>
<path d="M1127 1156 c-8 -20 20 -43 35 -28 8 8 8 15 -2 27 -16 19 -26 19 -33
1z"/>
<path d="M3991 1106 c-8 -10 -8 -16 3 -25 10 -9 16 -8 26 3 12 15 6 36 -9 36
-5 0 -14 -6 -20 -14z"/>
<path d="M1184 1099 c-3 -6 0 -17 8 -25 13 -13 16 -13 28 1 12 14 11 18 -1 26
-19 12 -26 11 -35 -2z"/>
<path d="M3933 1054 c-9 -23 13 -40 32 -24 12 10 13 16 4 26 -15 18 -28 18
-36 -2z"/>
<path d="M1241 1046 c-10 -12 -8 -17 7 -25 25 -13 47 6 31 26 -15 17 -24 16
-38 -1z"/>
<path d="M3871 1006 c-9 -10 -8 -16 4 -26 19 -16 41 1 32 24 -8 20 -21 20 -36
2z"/>
<path d="M1303 994 c-8 -20 17 -36 34 -22 10 8 10 14 2 24 -15 18 -28 18 -36
-2z"/>
<path d="M3811 961 c-12 -8 -13 -12 -1 -26 12 -14 15 -14 28 -1 8 8 11 19 8
25 -9 13 -16 14 -35 2z"/>
<path d="M1364 949 c-3 -6 0 -17 8 -25 13 -13 16 -13 28 1 12 14 11 18 -1 26
-19 12 -26 11 -35 -2z"/>
<path d="M3751 916 c-8 -9 -9 -21 -4 -31 8 -13 11 -13 28 -1 18 14 19 16 4 31
-14 14 -17 14 -28 1z"/>
<path d="M1429 904 c-10 -13 -10 -17 2 -25 18 -11 33 -6 37 13 4 22 -24 30
-39 12z"/>
<path d="M3682 872 c-12 -8 -7 -42 7 -42 17 1 33 20 28 34 -7 18 -16 20 -35 8z"/>
<path d="M1495 860 c-4 -7 -3 -16 3 -22 14 -14 45 -2 40 15 -6 16 -34 21 -43
7z"/>
<path d="M3612 827 c-15 -17 0 -39 22 -31 18 7 18 35 0 41 -6 2 -16 -2 -22
-10z"/>
<path d="M1564 819 c-3 -6 0 -17 8 -25 13 -13 16 -13 27 0 7 8 10 20 6 26 -8
13 -32 13 -41 -1z"/>
<path d="M3543 793 c-9 -3 -10 -10 -3 -23 13 -23 40 -15 40 11 0 19 -12 23
-37 12z"/>
<path d="M1635 780 c-8 -13 3 -30 20 -30 14 0 27 24 18 34 -10 9 -31 7 -38 -4z"/>
<path d="M3477 757 c-11 -8 -14 -17 -8 -26 11 -17 41 -7 41 13 0 21 -15 27
-33 13z"/>
<path d="M1703 744 c-5 -14 11 -33 28 -34 14 0 19 34 7 42 -19 12 -28 10 -35
-8z"/>
<path d="M1776 713 c-6 -15 8 -32 27 -33 15 0 20 32 6 41 -20 13 -26 11 -33
-8z"/>
<path d="M3395 720 c-4 -7 -3 -16 3 -22 14 -14 45 -2 40 15 -6 16 -34 21 -43
7z"/>
<path d="M1854 685 c-3 -8 -3 -19 1 -25 11 -17 35 -11 35 9 0 23 -29 36 -36
16z"/>
<path d="M3320 685 c0 -18 24 -30 39 -21 16 10 1 36 -20 36 -10 0 -19 -7 -19
-15z"/>
<path d="M3263 673 c-18 -7 -16 -43 2 -43 18 0 31 28 19 39 -5 5 -15 6 -21 4z"/>
<path d="M1926 654 c-8 -21 -8 -21 13 -27 20 -5 36 17 25 34 -9 14 -31 10 -38
-7z"/>
<path d="M2004 635 c-3 -8 -3 -19 1 -25 11 -17 35 -11 35 9 0 23 -29 36 -36
16z"/>
<path d="M3174 635 c-9 -21 3 -34 27 -28 12 4 18 11 15 20 -3 8 -6 17 -6 19 0
11 -31 2 -36 -11z"/>
<path d="M2077 609 c-6 -21 14 -36 33 -24 15 9 12 32 -6 39 -22 8 -21 9 -27
-15z"/>
<path d="M3102 622 c-12 -8 -7 -42 7 -42 17 1 33 20 28 34 -7 18 -16 20 -35 8z"/>
<path d="M2153 594 c-5 -14 11 -33 28 -34 14 0 19 34 7 42 -19 12 -28 10 -35
-8z"/>
<path d="M3020 590 c0 -13 7 -20 20 -20 13 0 20 7 20 20 0 13 -7 20 -20 20
-13 0 -20 -7 -20 -20z"/>
<path d="M2230 570 c0 -13 7 -20 20 -20 13 0 20 7 20 20 0 13 -7 20 -20 20
-13 0 -20 -7 -20 -20z"/>
<path d="M2940 570 c0 -13 7 -20 18 -20 24 0 32 8 25 26 -8 22 -43 17 -43 -6z"/>
<path d="M2310 560 c0 -13 7 -20 20 -20 13 0 20 7 20 20 0 13 -7 20 -20 20
-13 0 -20 -7 -20 -20z"/>
<path d="M2860 560 c0 -16 5 -21 23 -18 12 2 22 10 22 18 0 8 -10 16 -22 18
-18 3 -23 -2 -23 -18z"/>
<path d="M2390 550 c0 -13 7 -20 20 -20 13 0 20 7 20 20 0 13 -7 20 -20 20
-13 0 -20 -7 -20 -20z"/>
<path d="M2711 561 c-19 -12 -6 -43 16 -39 10 2 18 12 18 22 0 22 -14 29 -34
17z"/>
<path d="M2780 549 c0 -15 5 -20 22 -17 34 5 37 38 4 38 -20 0 -26 -5 -26 -21z"/>
<path d="M2467 546 c-7 -18 1 -26 25 -26 11 0 18 7 18 20 0 23 -35 28 -43 6z"/>
<path d="M2540 540 c0 -15 7 -20 25 -20 18 0 25 5 25 20 0 15 -7 20 -25 20
-18 0 -25 -5 -25 -20z"/>
<path d="M2622 543 c2 -10 13 -19 26 -21 17 -3 22 2 22 17 0 16 -6 21 -26 21
-19 0 -25 -5 -22 -17z"/>
</g>
</svg>
